<?xml version="1.0" encoding="UTF-8" standalone="no"?>
<svg
   xmlns:dc="http://purl.org/dc/elements/1.1/"
   xmlns:cc="http://creativecommons.org/ns#"
   xmlns:rdf="http://www.w3.org/1999/02/22-rdf-syntax-ns#"
   xmlns:svg="http://www.w3.org/2000/svg"
   xmlns="http://www.w3.org/2000/svg"
   xmlns:sodipodi="http://sodipodi.sourceforge.net/DTD/sodipodi-0.dtd"
   xmlns:inkscape="http://www.inkscape.org/namespaces/inkscape"
   version="1.1"
   id="svg2"
   viewBox="0 0 744.09448819 1052.3622047"
   height="297mm"
   width="210mm"
   inkscape:version="0.91 r13725"
   sodipodi:docname="logo.svg">
  <sodipodi:namedview
     pagecolor="#ffffff"
     bordercolor="#666666"
     borderopacity="1"
     objecttolerance="10"
     gridtolerance="10"
     guidetolerance="10"
     inkscape:pageopacity="0"
     inkscape:pageshadow="2"
     inkscape:window-width="1366"
     inkscape:window-height="746"
     id="namedview16"
     showgrid="false"
     inkscape:zoom="0.44851478"
     inkscape:cx="581.34038"
     inkscape:cy="549.16184"
     inkscape:window-x="-8"
     inkscape:window-y="-8"
     inkscape:window-maximized="1"
     inkscape:current-layer="svg2" />
  <defs
     id="defs4" />
  <metadata
     id="metadata7">
    <rdf:RDF>
      <cc:Work
         rdf:about="">
        <dc:format>image/svg+xml</dc:format>
        <dc:type
           rdf:resource="http://purl.org/dc/dcmitype/StillImage" />
        <dc:title />
      </cc:Work>
    </rdf:RDF>
  </metadata>
  <path
     inkscape:connector-curvature="0"
     id="path3429"
     d="m 498.1269,898.18613 c -37.89826,-3.63847 -75.19051,-18.88101 -105.38313,-43.07354 -8.18269,-6.55656 -23.00185,-21.3957 -29.53662,-29.57641 -21.01757,-26.3115 -36.14533,-60.12904 -41.31885,-92.36685 -1.4637,-9.12066 -2.5415,-22.19995 -1.71472,-20.80845 0.34325,0.57773 3.31854,5.60666 6.61176,11.17542 64.561,109.17102 208.40725,142.45821 314.45973,72.76853 27.93222,-18.35495 51.5192,-42.69715 68.7386,-70.93941 3.71985,-6.1011 4.3967,-6.8822 4.11832,-4.7526 -3.13212,23.96085 -6.84701,38.86026 -13.93614,55.89366 -31.20951,74.9888 -103.77223,123.15842 -184.42221,122.42566 -5.98125,-0.054 -13.90876,-0.39 -17.61674,-0.74601 z"
     style="fill:#ce83fc;fill-opacity:1" />
  <path
     inkscape:connector-curvature="0"
     id="path3427"
     d="m 638.07583,749.63987 c -39.72761,-3.29173 -66.37055,-44.59054 -53.6123,-83.10351 3.08962,-9.32659 7.38702,-16.09852 15.28001,-24.07863 10.97434,-11.09548 22.61725,-16.81228 38.06246,-18.6891 28.16469,-3.42245 56.37327,14.00523 66.07725,40.82345 3.25463,8.99459 4.11385,14.93404 3.68838,25.49585 -0.30565,7.58709 -0.75668,10.24052 -2.75328,16.19838 -3.10885,9.2767 -8.17483,17.67556 -14.69991,24.37085 -14.04164,14.40791 -31.29651,20.70167 -52.04261,18.98271 z"
     style="fill:#9d00ff;fill-opacity:1" />
  <path
     inkscape:connector-curvature="0"
     id="path3425"
     d="m 605.38937,464.92501 c 0.81355,-0.74885 3.93491,-3.49148 6.93638,-6.09473 14.53332,-12.60504 28.33875,-33.52331 35.36407,-53.58431 7.44613,-21.26258 8.83136,-48.01713 3.65457,-70.58428 -5.59145,-24.37467 -17.71759,-45.99885 -35.59769,-63.48032 -11.91478,-11.64914 -24.16932,-19.94256 -38.83558,-26.2825 -5.95879,-2.57588 -7.83942,-3.68913 -6.86414,-4.06338 2.13632,-0.81977 21.20202,0.235 28.19656,1.56003 10.39306,1.96872 20.79553,5.4573 30.37498,10.18654 60.33545,29.78682 81.96877,104.48131 46.96343,162.1529 -13.85812,22.83137 -35.86857,40.27746 -61.68342,48.892 -9.12336,3.04448 -10.66134,3.27911 -8.50916,1.29805 z"
     style="fill:#00aeff;fill-opacity:1" />
  <path
     inkscape:connector-curvature="0"
     id="path3421"
     d="m 559.61859,554.68838 c -27.96702,-3.50712 -53.63605,-14.38471 -75.37492,-31.94113 -6.60439,-5.33376 -18.46473,-17.43857 -23.35435,-23.83573 -12.58392,-16.46379 -22.3957,-36.95069 -26.84994,-56.06244 -0.74508,-3.19687 -1.26738,-5.8125 -1.16065,-5.8125 0.10675,0 1.58632,2.34353 3.28795,5.20783 5.00121,8.41826 14.02892,20.06362 21.75422,28.06194 26.11657,27.03965 58.16188,43.74852 95.39684,49.74127 11.38439,1.83225 37.98789,1.82998 49.0508,-0.005 46.97123,-7.7876 86.91513,-32.88869 112.68655,-70.81322 2.3103,-3.39978 4.29443,-6.08752 4.40915,-5.97277 0.37308,0.37305 -3.9274,14.26365 -6.08485,19.65413 -5.33984,13.34196 -13.54729,27.32249 -22.67522,38.62495 -5.33374,6.60442 -17.43853,18.46476 -23.8357,23.35435 -21.5344,16.45961 -47.06775,26.83222 -73.50539,29.8607 -7.93155,0.90857 -26.26905,0.87425 -33.74449,-0.0633 z"
     style="fill:#0044ff;fill-opacity:1" />
  <path
     inkscape:connector-curvature="0"
     id="path3423-1"
     d="M 98.220142,505.38566 C 90.113179,498.878 77.147267,485.85473 71.24043,478.28653 54.083017,456.30356 42.444179,428.60447 38.292467,399.87415 c -1.5662,-10.83822 -1.76255,-32.07969 -0.39135,-42.33748 7.446988,-55.71036 40.774325,-102.41664 90.467953,-126.78549 23.51897,-11.53326 45.37832,-16.61887 71.62491,-16.66367 19.66559,-0.0335 34.85329,2.33516 52.30015,8.15699 7.41329,2.47372 21.03662,8.12421 22.08772,9.16123 0.28213,0.27835 -4.94912,0.5591 -11.62498,0.62388 -60.87934,0.59085 -117.01858,31.37016 -151.62692,83.13211 -5.85028,8.74999 -16.509145,30.04541 -19.895795,39.74995 -3.30295,9.46469 -7.1163,24.7037 -8.727013,34.87496 -1.07385,6.7812 -1.3549,12.71344 -1.31475,27.74998 0.046,17.18902 0.249,20.22582 2.005625,29.99996 3.548638,19.74447 9.446288,37.35214 18.263673,54.52699 2.60425,5.07262 4.59425,9.22295 4.42223,9.22295 -0.172,0 -3.6207,-2.65538 -7.663778,-5.90085 z"
     style="fill:#6eff7a;fill-opacity:1" />
  <path
     inkscape:connector-curvature="0"
     id="path3423-2"
     d="m 21.799304,329.88441 c 1.427598,-28.0971 7.394467,-51.63888 19.129225,-75.47263 9.571313,-19.43972 20.8854,-35.32266 35.751638,-50.18889 51.188123,-51.18812 128.117533,-68.29322 196.063713,-43.59441 47.35565,17.21406 87.61957,54.80655 107.2991,100.17998 3.48552,8.03626 8.59397,22.43845 7.57402,21.3533 -0.38772,-0.4125 -2.507,-2.94375 -4.70952,-5.625 -30.62421,-37.28062 -76.55414,-63.96425 -125.16744,-72.71781 -25.20822,-4.53916 -55.95846,-3.93923 -81.74604,1.59483 -20.10727,4.31508 -40.45975,11.94766 -57.83001,21.68746 -41.631998,23.34373 -74.114385,59.77885 -92.574065,103.83933 -1.883923,4.49665 -3.622145,8.35467 -3.862695,8.57343 -0.2405,0.21875 -0.20825,-4.11458 0.072,-9.62959 z"
     style="fill:#38eb47;fill-opacity:1" />
  <path
     inkscape:connector-curvature="0"
     id="path3423"
     d="m 434.74718,421.47409 c 0.002,-0.30937 0.70475,-5.11873 1.56186,-10.68748 2.00635,-13.03518 2.76425,-40.8298 1.48643,-54.51201 -5.18819,-55.55229 -27.61104,-104.62442 -66.00588,-144.45299 -38.01497,-39.43454 -87.53502,-63.88268 -143.32224,-70.75845 -12.06983,-1.4876 -40.15816,-1.69815 -51.34835,-0.38488 -16.27727,1.91028 -31.34798,4.9886 -44.89117,9.16946 -4.06514,1.25495 -7.54054,2.13238 -7.72306,1.94985 -0.52233,-0.52232 16.56745,-11.82341 24.95535,-16.50237 23.4285,-13.06904 50.29821,-21.63905 78.00823,-24.88045 12.39057,-1.4494 35.41059,-1.4494 47.80115,0 71.63034,8.37904 133.1274,51.76399 164.77729,116.24705 9.96819,20.30905 16.10264,39.74178 19.56663,61.98325 2.2548,14.47759 2.45675,45.611 0.38602,59.51661 -3.56324,23.92858 -10.34219,45.62353 -20.71385,66.2915 -3.47191,6.91859 -4.54801,8.58331 -4.53841,7.02091 z"
     style="fill:#0ec21d;fill-opacity:1" />
  <path
     inkscape:connector-curvature="0"
     id="path3427-2"
     d="m 317.74295,913.06146 c -49.94212,-23.01725 -92.57577,-64.33063 -117.94462,-114.29213 -14.3813,-28.32264 -22.85745,-56.19241 -26.53051,-87.23302 -1.54848,-13.08609 -1.74665,-40.56509 -0.38345,-53.17717 4.54151,-42.01758 18.69812,-81.82683 40.9703,-115.21102 9.93448,-14.89099 17.30471,-23.98085 30.00918,-37.01101 20.28894,-20.80908 41.53699,-36.56479 66.27547,-49.14408 32.89513,-16.7269 67.22007,-25.75836 105.47945,-27.75344 l 7.49997,-0.3911 -9.37497,3.60574 c -96.74207,37.20839 -165.31399,121.87293 -181.3885,223.95714 -2.55587,16.23165 -3.34744,26.92331 -3.33162,44.99995 0.046,52.53031 13.79159,102.04219 40.85025,147.14381 12.28587,20.47823 25.16788,36.87944 43.33095,55.16846 7.27145,7.32187 13.20762,13.31249 13.19149,13.31249 -0.015,0 -3.91014,-1.7886 -8.65339,-3.97462 z"
     style="fill:#9d00ff;fill-opacity:1" />
  <path
     inkscape:connector-curvature="0"
     id="path3429-1"
     d="m 448.2437,942.47711 c -63.7675,-6.3162 -121.39158,-38.49364 -159.2738,-88.93904 -25.41228,-33.84001 -39.97135,-70.68156 -44.70545,-113.1268 -1.06702,-9.56679 -1.08107,-35.99163 -0.025,-45.74993 4.48965,-41.45835 20.14847,-81.64477 44.12827,-113.2499 4.89613,-6.45308 15.25685,-18.49362 15.60977,-18.14065 0.1645,0.1645 -0.91397,3.46978 -2.39675,7.34489 -6.32909,16.54079 -11.78854,39.24561 -14.31797,59.54571 -1.61718,12.97874 -1.82125,43.2016 -0.37728,55.87494 11.08089,97.25415 73.31536,177.77179 164.08399,212.28834 38.61486,14.68409 85.43874,19.82601 125.70596,13.80426 4.01915,-0.60105 7.73164,-1.09155 8.24999,-1.09005 1.42867,0.008 -3.22864,2.6838 -14.43255,8.30368 -22.4021,11.23686 -43.35565,17.82575 -69.3513,21.80775 -11.34189,1.7373 -41.19464,2.4861 -52.89858,1.3268 z"
     style="fill:#ba4aff;fill-opacity:1" />
  <path
     inkscape:connector-curvature="0"
     id="path3425-8"
     d="m 577.99357,510.81706 c -14.24419,-1.75498 -30.13014,-6.32225 -42.36465,-12.17994 -7.22785,-3.4606 -15.62217,-8.30682 -14.43972,-8.33638 0.31383,-0.007 3.85758,0.5583 7.87499,1.25805 10.20929,1.7782 35.18231,1.76718 45.55438,-0.02 16.40043,-2.82613 34.31128,-8.81321 46.83962,-15.65715 55.34751,-30.23505 85.43886,-90.49957 76.13973,-152.48651 -1.14195,-7.61204 -5.0723,-23.4625 -6.46155,-26.05832 -3.61193,-6.74897 7.76571,7.52175 13.12486,16.46218 22.2933,37.19104 24.3142,84.05157 5.33334,123.66929 -6.54944,13.67034 -13.46893,23.26235 -25.43619,35.26054 -12.07571,12.10686 -22.14128,19.3104 -36.43811,26.07728 -17.87904,8.46236 -32.49747,11.79001 -53.22672,12.11621 -7.63125,0.12 -15.05623,0.0728 -16.49998,-0.105 z"
     style="fill:#0088ff;fill-opacity:1" />
</svg>
